<svg viewBox="0 0 32 32" xmlns="http://www.w3.org/2000/svg"><path d="m20.869 17.282h9.131v1.343h-9.131zm5.382 2.687 2.734 4.031h-1.544l-2-2.627-2.013 2.627h-1.545l2.735-4.031z" fill="#ce3d40"/><path d="m7.811 18.259a5.576 5.576 0 0 1 -1.037.287 6.34 6.34 0 0 1 -1.1.093 3.664 3.664 0 0 1 -2.723-.962 3.822 3.822 0 0 1 -.951-2.81 4.508 4.508 0 0 1 .275-1.611 3.582 3.582 0 0 1 .773-1.237 3.407 3.407 0 0 1 1.189-.794 4.009 4.009 0 0 1 1.523-.28 6.747 6.747 0 0 1 1.085.082 4.51 4.51 0 0 1 .966.268v1.238a4.082 4.082 0 0 0 -.985-.369 4.6 4.6 0 0 0 -1.036-.116 2.348 2.348 0 0 0 -.94.191 2.287 2.287 0 0 0 -.777.547 2.589 2.589 0 0 0 -.527.873 3.283 3.283 0 0 0 -.194 1.163 2.8 2.8 0 0 0 .658 2.031 2.431 2.431 0 0 0 1.824.675 4.312 4.312 0 0 0 1.022-.119 4.211 4.211 0 0 0 .955-.358zm5.113-9.193h-2.207v-1.066h3.514v9.454h2.222v1.081h-5.982v-1.081h2.453z" fill="#50b2dd"/></svg>